{
  "source": "C:\\Users\\Peter\\Desktop\\stuff\\MIUN\\quantitative_research\\video_compression\\videos\\HEVC_CLASS_B\\Kimono_1920x1080_24.y4m",
  "output": "C:\\Users\\Peter\\Desktop\\stuff\\MIUN\\quantitative_research\\video_compression\\compressed_videos\\HEVC_CLASS_B\\vp9\\2\\Kimono_1920x1080_24_vp9.webm",
  "codec": "vp9",
  "ok": "Input #0, yuv4mpegpipe, from 'C:\\Users\\Peter\\Desktop\\stuff\\MIUN\\quantitative_research\\video_compression\\videos\\HEVC_CLASS_B\\Kimono_1920x1080_24.y4m':\n  Duration: 00:00:10.00, start: 0.000000, bitrate: 597198 kb/s\n  Stream #0:0: Video: rawvideo (I420 / 0x30323449), yuv420p(progressive), 1920x1080, 24 fps, 24 tbr, 24 tbn\n[out#0/webm @ 0000024528fb9b40] Codec AVOption b:a (set bitrate (in bits/s)) has not been used for any stream. The most likely reason is either wrong type (e.g. a video option with no video streams) or that it is a private option of some decoder which was not actually used for any stream.\nStream mapping:\n  Stream #0:0 -> #0:0 (rawvideo (native) -> vp9 (libvpx-vp9))\nPress [q] to stop, [?] for help\n[libvpx-vp9 @ 0000024528fbbe80] v1.15.2-100-g40561f514\nOutput #0, webm, to 'C:\\Users\\Peter\\Desktop\\stuff\\MIUN\\quantitative_research\\video_compression\\compressed_videos\\HEVC_CLASS_B\\vp9\\2\\Kimono_1920x1080_24_vp9.webm':\n  Metadata:\n    encoder         : Lavf62.3.100\n  Stream #0:0: Video: vp9, yuv420p(tv, progressive), 1920x1080, q=2-31, 2000 kb/s, 24 fps, 1k tbn\n    Metadata:\n      encoder         : Lavc62.11.100 libvpx-vp9\n    Side data:\n      cpb: bitrate max/min/avg: 0/0/0 buffer size: 2000000 vbv_delay: N/A\nframe=    0 fps=0.0 q=0.0 size=       0KiB time=N/A bitrate=N/A speed=N/A elapsed=0:00:00.51    \nframe=    2 fps=1.6 q=38.0 size=       0KiB time=00:00:00.08 bitrate=  46.3kbits/s speed=0.0666x elapsed=0:00:01.25    \nframe=    5 fps=2.7 q=53.0 size=       0KiB time=00:00:00.20 bitrate=  18.5kbits/s speed=0.111x elapsed=0:00:01.86    \nframe=    7 fps=2.9 q=52.0 size=       0KiB time=00:00:00.29 bitrate=  13.2kbits/s speed=0.119x elapsed=0:00:02.45    \nframe=   10 fps=3.4 q=51.0 size=       0KiB time=00:00:00.37 bitrate=  10.3kbits/s speed=0.126x elapsed=0:00:02.97    \nframe=   12 fps=3.3 q=51.0 size=       0KiB time=00:00:00.50 bitrate=   7.7kbits/s speed=0.139x elapsed=0:00:03.59    \nframe=   14 fps=3.3 q=49.0 size=       0KiB time=00:00:00.58 bitrate=   6.6kbits/s speed=0.139x elapsed=0:00:04.19    \nframe=   16 fps=3.3 q=50.0 size=       0KiB time=00:00:00.66 bitrate=   5.8kbits/s speed=0.138x elapsed=0:00:04.81    \nframe=   19 fps=3.5 q=50.0 size=       0KiB time=00:00:00.75 bitrate=   5.1kbits/s speed=0.138x elapsed=0:00:05.42    \nframe=   20 fps=3.3 q=50.0 size=       0KiB time=00:00:00.83 bitrate=   4.6kbits/s speed=0.137x elapsed=0:00:06.07    \nframe=   22 fps=3.3 q=50.0 size=       0KiB time=00:00:00.91 bitrate=   4.2kbits/s speed=0.136x elapsed=0:00:06.76    \nframe=   24 fps=3.2 q=48.0 size=       0KiB time=00:00:01.00 bitrate=   3.9kbits/s speed=0.135x elapsed=0:00:07.38    \nframe=   27 fps=3.4 q=48.0 size=       0KiB time=00:00:01.12 bitrate=   3.4kbits/s speed=0.142x elapsed=0:00:07.93    \nframe=   29 fps=3.4 q=48.0 size=       0KiB time=00:00:01.20 bitrate=   3.2kbits/s speed=0.14x elapsed=0:00:08.61    \nframe=   30 fps=3.3 q=48.0 size=       0KiB time=00:00:01.25 bitrate=   3.1kbits/s speed=0.136x elapsed=0:00:09.21    \nframe=   33 fps=3.4 q=47.0 size=       0KiB time=00:00:01.37 bitrate=   2.8kbits/s speed=0.141x elapsed=0:00:09.77    \nframe=   35 fps=3.4 q=47.0 size=       0KiB time=00:00:01.45 bitrate=   2.6kbits/s speed=0.14x elapsed=0:00:10.38    \nframe=   37 fps=3.4 q=48.0 size=       0KiB time=00:00:01.54 bitrate=   2.5kbits/s speed=0.14x elapsed=0:00:10.99    \nframe=   39 fps=3.4 q=48.0 size=       0KiB time=00:00:01.62 bitrate=   2.4kbits/s speed=0.14x elapsed=0:00:11.60    \nframe=   41 fps=3.4 q=37.0 size=       0KiB time=00:00:01.66 bitrate=   2.3kbits/s speed=0.137x elapsed=0:00:12.16    \nframe=   43 fps=3.4 q=46.0 size=       0KiB time=00:00:01.79 bitrate=   2.2kbits/s speed=0.141x elapsed=0:00:12.75    \nframe=   46 fps=3.5 q=47.0 size=       0KiB time=00:00:01.91 bitrate=   2.0kbits/s speed=0.145x elapsed=0:00:13.26    \nframe=   48 fps=3.5 q=47.0 size=       0KiB time=00:00:02.00 bitrate=   1.9kbits/s speed=0.144x elapsed=0:00:13.85    \nframe=   50 fps=3.5 q=47.0 size=       0KiB time=00:00:02.08 bitrate=   1.9kbits/s speed=0.144x elapsed=0:00:14.45    \nframe=   52 fps=3.5 q=47.0 size=       0KiB time=00:00:02.16 bitrate=   1.8kbits/s speed=0.144x elapsed=0:00:15.00    \nframe=   53 fps=3.4 q=35.0 size=       0KiB time=00:00:02.20 bitrate=   1.7kbits/s speed=0.141x elapsed=0:00:15.66    \nframe=   55 fps=3.4 q=47.0 size=       0KiB time=00:00:02.29 bitrate=   1.7kbits/s speed=0.141x elapsed=0:00:16.24    \nframe=   57 fps=3.4 q=47.0 size=       0KiB time=00:00:02.37 bitrate=   1.6kbits/s speed=0.141x elapsed=0:00:16.84    \nframe=   58 fps=3.3 q=47.0 size=       0KiB time=00:00:02.41 bitrate=   1.6kbits/s speed=0.139x elapsed=0:00:17.38    \nframe=   60 fps=3.3 q=47.0 size=       0KiB time=00:00:02.50 bitrate=   1.5kbits/s speed=0.139x elapsed=0:00:18.01    \nframe=   62 fps=3.3 q=47.0 size=       0KiB time=00:00:02.58 bitrate=   1.5kbits/s speed=0.138x elapsed=0:00:18.70    \nframe=   64 fps=3.3 q=47.0 size=       0KiB time=00:00:02.66 bitrate=   1.4kbits/s speed=0.138x elapsed=0:00:19.39    \nframe=   66 fps=3.3 q=48.0 size=       0KiB time=00:00:02.75 bitrate=   1.4kbits/s speed=0.137x elapsed=0:00:20.05    \nframe=   68 fps=3.3 q=46.0 size=       0KiB time=00:00:02.83 bitrate=   1.4kbits/s speed=0.137x elapsed=0:00:20.62    \nframe=   70 fps=3.3 q=47.0 size=       0KiB time=00:00:02.91 bitrate=   1.3kbits/s speed=0.137x elapsed=0:00:21.24    \nframe=   71 fps=3.2 q=34.0 size=       0KiB time=00:00:02.95 bitrate=   1.3kbits/s speed=0.135x elapsed=0:00:21.93    \nframe=   73 fps=3.2 q=46.0 size=       0KiB time=00:00:03.04 bitrate=   1.3kbits/s speed=0.135x elapsed=0:00:22.49    \nframe=   75 fps=3.2 q=46.0 size=       0KiB time=00:00:03.12 bitrate=   1.2kbits/s speed=0.135x elapsed=0:00:23.08    \nframe=   76 fps=3.2 q=47.0 size=       0KiB time=00:00:03.16 bitrate=   1.2kbits/s speed=0.134x elapsed=0:00:23.68    \nframe=   78 fps=3.2 q=47.0 size=       0KiB time=00:00:03.25 bitrate=   1.2kbits/s speed=0.134x elapsed=0:00:24.30    \nframe=   80 fps=3.2 q=46.0 size=       0KiB time=00:00:03.33 bitrate=   1.2kbits/s speed=0.134x elapsed=0:00:24.96    \nframe=   82 fps=3.2 q=46.0 size=       0KiB time=00:00:03.41 bitrate=   1.1kbits/s speed=0.133x elapsed=0:00:25.64    \nframe=   84 fps=3.2 q=47.0 size=       0KiB time=00:00:03.50 bitrate=   1.1kbits/s speed=0.133x elapsed=0:00:26.31    \nframe=   86 fps=3.2 q=46.0 size=       0KiB time=00:00:03.58 bitrate=   1.1kbits/s speed=0.133x elapsed=0:00:26.90    \nframe=   88 fps=3.2 q=47.0 size=       0KiB time=00:00:03.66 bitrate=   1.1kbits/s speed=0.134x elapsed=0:00:27.43    \nframe=   91 fps=3.2 q=46.0 size=       0KiB time=00:00:03.79 bitrate=   1.0kbits/s speed=0.135x elapsed=0:00:28.06    \nframe=   94 fps=3.3 q=47.0 size=       0KiB time=00:00:03.91 bitrate=   1.0kbits/s speed=0.137x elapsed=0:00:28.65    \nframe=   96 fps=3.3 q=47.0 size=       0KiB time=00:00:04.00 bitrate=   1.0kbits/s speed=0.137x elapsed=0:00:29.22    \nframe=   99 fps=3.3 q=46.0 size=       0KiB time=00:00:04.12 bitrate=   0.9kbits/s speed=0.139x elapsed=0:00:29.73    \nframe=  102 fps=3.4 q=46.0 size=       0KiB time=00:00:04.25 bitrate=   0.9kbits/s speed=0.14x elapsed=0:00:30.26    \nframe=  105 fps=3.4 q=46.0 size=       0KiB time=00:00:04.37 bitrate=   0.9kbits/s speed=0.142x elapsed=0:00:30.83    \nframe=  108 fps=3.4 q=44.0 size=       0KiB time=00:00:04.50 bitrate=   0.9kbits/s speed=0.143x elapsed=0:00:31.41    \nframe=  111 fps=3.5 q=43.0 size=       0KiB time=00:00:04.62 bitrate=   0.8kbits/s speed=0.145x elapsed=0:00:31.99    \nframe=  114 fps=3.5 q=44.0 size=       0KiB time=00:00:04.75 bitrate=   0.8kbits/s speed=0.146x elapsed=0:00:32.56    \nframe=  116 fps=3.5 q=44.0 size=       0KiB time=00:00:04.83 bitrate=   0.8kbits/s speed=0.146x elapsed=0:00:33.08    \nframe=  119 fps=3.5 q=45.0 size=       0KiB time=00:00:04.95 bitrate=   0.8kbits/s speed=0.147x elapsed=0:00:33.65    \nframe=  122 fps=3.6 q=46.0 size=       0KiB time=00:00:05.08 bitrate=   0.8kbits/s speed=0.149x elapsed=0:00:34.19    \nframe=  125 fps=3.6 q=44.0 size=    1024KiB time=00:00:05.20 bitrate=1610.6kbits/s speed=0.15x elapsed=0:00:34.77    \nframe=  127 fps=3.6 q=45.0 size=    1024KiB time=00:00:05.29 bitrate=1585.2kbits/s speed=0.15x elapsed=0:00:35.30    \nframe=  130 fps=3.6 q=46.0 size=    1024KiB time=00:00:05.41 bitrate=1548.7kbits/s speed=0.151x elapsed=0:00:35.83    \nframe=  133 fps=3.7 q=45.0 size=    1024KiB time=00:00:05.54 bitrate=1513.7kbits/s speed=0.152x elapsed=0:00:36.37    \nframe=  136 fps=3.7 q=43.0 size=    1024KiB time=00:00:05.66 bitrate=1480.3kbits/s speed=0.153x elapsed=0:00:36.97    \nframe=  139 fps=3.7 q=43.0 size=    1024KiB time=00:00:05.79 bitrate=1448.4kbits/s speed=0.154x elapsed=0:00:37.49    \nframe=  142 fps=3.7 q=56.0 size=    1024KiB time=00:00:05.91 bitrate=1417.8kbits/s speed=0.156x elapsed=0:00:38.03    \nframe=  144 fps=3.7 q=41.0 size=    1024KiB time=00:00:06.00 bitrate=1398.1kbits/s speed=0.156x elapsed=0:00:38.56    \nframe=  148 fps=3.8 q=35.0 size=    1024KiB time=00:00:06.16 bitrate=1360.3kbits/s speed=0.158x elapsed=0:00:39.11    \nframe=  152 fps=3.8 q=36.0 size=    1024KiB time=00:00:06.33 bitrate=1324.5kbits/s speed=0.16x elapsed=0:00:39.63    \nframe=  155 fps=3.9 q=26.0 size=    1024KiB time=00:00:06.41 bitrate=1307.3kbits/s speed=0.16x elapsed=0:00:40.17    \nframe=  159 fps=3.9 q=36.0 size=    1024KiB time=00:00:06.62 bitrate=1266.2kbits/s speed=0.163x elapsed=0:00:40.75    \nframe=  162 fps=3.9 q=37.0 size=    1024KiB time=00:00:06.75 bitrate=1242.8kbits/s speed=0.163x elapsed=0:00:41.29    \nframe=  165 fps=3.9 q=23.0 size=    1024KiB time=00:00:06.87 bitrate=1220.2kbits/s speed=0.164x elapsed=0:00:41.83    \nframe=  169 fps=4.0 q=36.0 size=    1024KiB time=00:00:07.04 bitrate=1191.3kbits/s speed=0.166x elapsed=0:00:42.35    \nframe=  172 fps=4.0 q=37.0 size=    1024KiB time=00:00:07.16 bitrate=1170.5kbits/s speed=0.167x elapsed=0:00:42.92    \nframe=  174 fps=4.0 q=37.0 size=    1024KiB time=00:00:07.25 bitrate=1157.0kbits/s speed=0.167x elapsed=0:00:43.49    \nframe=  178 fps=4.0 q=35.0 size=    1024KiB time=00:00:07.41 bitrate=1131.0kbits/s speed=0.168x elapsed=0:00:44.01    \nframe=  182 fps=4.1 q=36.0 size=    1024KiB time=00:00:07.58 bitrate=1106.2kbits/s speed=0.17x elapsed=0:00:44.56    \nframe=  184 fps=4.1 q=37.0 size=    1024KiB time=00:00:07.66 bitrate=1094.2kbits/s speed=0.17x elapsed=0:00:45.10    \nframe=  188 fps=4.1 q=34.0 size=    1024KiB time=00:00:07.83 bitrate=1070.9kbits/s speed=0.171x elapsed=0:00:45.69    \nframe=  191 fps=4.1 q=35.0 size=    1024KiB time=00:00:07.95 bitrate=1054.1kbits/s speed=0.172x elapsed=0:00:46.34    \nframe=  194 fps=4.1 q=36.0 size=    1024KiB time=00:00:08.08 bitrate=1037.8kbits/s speed=0.172x elapsed=0:00:46.92    \nframe=  195 fps=4.1 q=21.0 size=    1024KiB time=00:00:08.12 bitrate=1032.4kbits/s speed=0.171x elapsed=0:00:47.49    \nframe=  198 fps=4.1 q=34.0 size=    1024KiB time=00:00:08.25 bitrate=1016.8kbits/s speed=0.172x elapsed=0:00:48.00    \nframe=  202 fps=4.2 q=35.0 size=    1024KiB time=00:00:08.41 bitrate= 996.7kbits/s speed=0.173x elapsed=0:00:48.52    \nframe=  204 fps=4.2 q=35.0 size=    1024KiB time=00:00:08.50 bitrate= 986.9kbits/s speed=0.173x elapsed=0:00:49.07    \nframe=  208 fps=4.2 q=32.0 size=    1024KiB time=00:00:08.66 bitrate= 967.9kbits/s speed=0.175x elapsed=0:00:49.58    \nframe=  211 fps=4.2 q=33.0 size=    1024KiB time=00:00:08.79 bitrate= 954.2kbits/s speed=0.175x elapsed=0:00:50.14    \nframe=  214 fps=4.2 q=33.0 size=    1024KiB time=00:00:08.91 bitrate= 940.8kbits/s speed=0.176x elapsed=0:00:50.69    \nframe=  216 fps=4.2 q=33.0 size=    1024KiB time=00:00:09.00 bitrate= 932.1kbits/s speed=0.176x elapsed=0:00:51.26    \nframe=  216 fps=4.2 q=33.0 size=    1024KiB time=00:00:09.00 bitrate= 932.1kbits/s speed=0.174x elapsed=0:00:51.80    \nframe=  216 fps=4.1 q=33.0 size=    1024KiB time=00:00:09.00 bitrate= 932.1kbits/s speed=0.172x elapsed=0:00:52.34    \nframe=  216 fps=4.1 q=33.0 size=    1024KiB time=00:00:09.00 bitrate= 932.1kbits/s speed=0.17x elapsed=0:00:52.88    \nframe=  216 fps=4.0 q=33.0 size=    1024KiB time=00:00:09.00 bitrate= 932.1kbits/s speed=0.168x elapsed=0:00:53.41    \nframe=  216 fps=4.0 q=33.0 size=    1024KiB time=00:00:09.00 bitrate= 932.1kbits/s speed=0.167x elapsed=0:00:53.95    \nframe=  216 fps=4.0 q=33.0 size=    1024KiB time=00:00:09.00 bitrate= 932.1kbits/s speed=0.165x elapsed=0:00:54.50    \nframe=  216 fps=3.9 q=33.0 size=    1024KiB time=00:00:09.00 bitrate= 932.1kbits/s speed=0.164x elapsed=0:00:55.04    \n[out#0/webm @ 0000024528fb9b40] video:2360KiB audio:0KiB subtitle:0KiB other streams:0KiB global headers:0KiB muxing overhead: 0.093752%\nframe=  240 fps=4.4 q=29.0 Lsize=    2363KiB time=00:00:10.00 bitrate=1935.4kbits/s speed=0.182x elapsed=0:00:55.07    \n",
  "seconds": 55.4138605594635,
  "probe_out": {}
}